<svg width="8" height="8" viewBox="0 0 8 8" fill="none" xmlns="http://www.w3.org/2000/svg">
<path d="M5.744 4.8C5.776 4.536 5.8 4.272 5.8 4C5.8 3.728 5.776 3.464 5.744 3.2H7.096C7.16 3.456 7.2 3.724 7.2 4C7.2 4.276 7.16 4.544 7.096 4.8M5.036 7.024C5.276 6.58 5.46 6.1 5.588 5.6H6.768C6.38047 6.26731 5.76565 6.7728 5.036 7.024ZM4.936 4.8H3.064C3.024 4.536 3 4.272 3 4C3 3.728 3.024 3.46 3.064 3.2H4.936C4.972 3.46 5 3.728 5 4C5 4.272 4.972 4.536 4.936 4.8ZM4 7.184C3.668 6.704 3.4 6.172 3.236 5.6H4.764C4.6 6.172 4.332 6.704 4 7.184ZM2.4 2.4H1.232C1.61554 1.73089 2.22992 1.22459 2.96 0.976C2.72 1.42 2.54 1.9 2.4 2.4ZM1.232 5.6H2.4C2.54 6.1 2.72 6.58 2.96 7.024C2.23145 6.77267 1.61794 6.26709 1.232 5.6ZM0.904 4.8C0.84 4.544 0.8 4.276 0.8 4C0.8 3.724 0.84 3.456 0.904 3.2H2.256C2.224 3.464 2.2 3.728 2.2 4C2.2 4.272 2.224 4.536 2.256 4.8M4 0.812C4.332 1.292 4.6 1.828 4.764 2.4H3.236C3.4 1.828 3.668 1.292 4 0.812ZM6.768 2.4H5.588C5.46281 1.90458 5.27743 1.42636 5.036 0.976C5.772 1.228 6.384 1.736 6.768 2.4ZM4 0C1.788 0 0 1.8 0 4C0 5.06087 0.421427 6.07828 1.17157 6.82843C1.54301 7.19986 1.98396 7.4945 2.46927 7.69552C2.95457 7.89654 3.47471 8 4 8C5.06087 8 6.07828 7.57857 6.82843 6.82843C7.57857 6.07828 8 5.06087 8 4C8 3.47471 7.89654 2.95457 7.69552 2.46927C7.4945 1.98396 7.19986 1.54301 6.82843 1.17157C6.45699 0.800139 6.01604 0.505501 5.53073 0.304482C5.04543 0.103463 4.52529 0 4 0Z" fill="#A3A3A3"/>
</svg>
